<svg width="200" height="200" viewBox="0 0 200 200" xmlns="http://www.w3.org/2000/svg">
  <defs>
    <linearGradient id="blueGradient" x1="0%" y1="0%" x2="100%" y2="100%">
      <stop offset="0%" style="stop-color:#1976d2;stop-opacity:1" />
      <stop offset="100%" style="stop-color:#42a5f5;stop-opacity:1" />
    </linearGradient>
  </defs>
  <g fill="none" fill-rule="evenodd">
    <!-- 背景圆形 -->
    <circle cx="100" cy="100" r="90" fill="url(#blueGradient)"/>
    
    <!-- 数据库图标 -->
    <g transform="translate(50, 60)">
      <!-- 数据库柱体 -->
      <ellipse cx="50" cy="20" rx="40" ry="12" fill="#ffffff" opacity="0.9"/>
      <rect x="10" y="20" width="80" height="60" fill="#ffffff" opacity="0.8"/>
      <ellipse cx="50" cy="80" rx="40" ry="12" fill="#ffffff" opacity="0.9"/>
      
      <!-- 数据库分层线 -->
      <ellipse cx="50" cy="35" rx="40" ry="8" fill="none" stroke="#1976d2" stroke-width="2" opacity="0.7"/>
      <ellipse cx="50" cy="50" rx="40" ry="8" fill="none" stroke="#1976d2" stroke-width="2" opacity="0.7"/>
      <ellipse cx="50" cy="65" rx="40" ry="8" fill="none" stroke="#1976d2" stroke-width="2" opacity="0.7"/>
    </g>
    
    <!-- 装饰性元素 -->
    <circle cx="160" cy="60" r="8" fill="#64b5f6" opacity="0.8"/>
    <circle cx="40" cy="160" r="6" fill="#90caf9" opacity="0.8"/>
    <circle cx="170" cy="150" r="5" fill="#bbdefb" opacity="0.8"/>
    
    <!-- 文档图标 -->
    <g transform="translate(130, 120)">
      <rect x="0" y="0" width="30" height="40" rx="3" fill="#ffffff" opacity="0.9"/>
      <rect x="5" y="8" width="20" height="2" fill="#1976d2" opacity="0.7"/>
      <rect x="5" y="14" width="15" height="2" fill="#1976d2" opacity="0.7"/>
      <rect x="5" y="20" width="18" height="2" fill="#1976d2" opacity="0.7"/>
      <rect x="5" y="26" width="12" height="2" fill="#1976d2" opacity="0.7"/>
    </g>
  </g>
</svg>