<svg xmlns="http://www.w3.org/2000/svg" width="1041.277" height="554.141" viewBox="0 0 1041.277 554.141">
  <title>Powered by React</title>
  <defs>
    <linearGradient id="reactGradient" x1="0%" y1="0%" x2="100%" y2="100%">
      <stop offset="0%" style="stop-color:#1976d2;stop-opacity:1" />
      <stop offset="50%" style="stop-color:#42a5f5;stop-opacity:1" />
      <stop offset="100%" style="stop-color:#64b5f6;stop-opacity:1" />
    </linearGradient>
    <linearGradient id="backgroundGradient" x1="0%" y1="0%" x2="100%" y2="100%">
      <stop offset="0%" style="stop-color:#e3f2fd;stop-opacity:1" />
      <stop offset="100%" style="stop-color:#bbdefb;stop-opacity:1" />
    </linearGradient>
    <linearGradient id="deviceGradient" x1="0%" y1="0%" x2="0%" y2="100%">
      <stop offset="0%" style="stop-color:#1565c0;stop-opacity:1" />
      <stop offset="100%" style="stop-color:#0d47a1;stop-opacity:1" />
    </linearGradient>
  </defs>
  
  <g id="Group_24" data-name="Group 24" transform="translate(-440 -263)">
    <g id="Group_23" data-name="Group 23" transform="translate(439.989 262.965)">
      <!-- 背景形状 -->
      <path id="Path_299" data-name="Path 299" d="M1040.82,611.12q-1.74,3.75-3.47,7.4-2.7,5.67-5.33,11.12c-.78,1.61-1.56,3.19-2.32,4.77-8.6,17.57-16.63,33.11-23.45,45.89A73.21,73.21,0,0,1,942.44,719l-151.65,1.65h-1.6l-13,.14-11.12.12-34.1.37h-1.38l-17.36.19h-.53l-107,1.16-95.51,1-11.11.12-69,.75H429l-44.75.48h-.48l-141.5,1.53-42.33.46a87.991,87.991,0,0,1-10.79-.54h0c-1.22-.14-2.44-.3-3.65-.49a87.38,87.38,0,0,1-51.29-27.54C116,678.37,102.75,655,93.85,629.64q-1.93-5.49-3.6-11.12C59.44,514.37,97,380,164.6,290.08q4.25-5.64,8.64-11l.07-.08c20.79-25.52,44.1-46.84,68.93-62,44-26.91,92.75-34.49,140.7-11.9,40.57,19.12,78.45,28.11,115.17,30.55,3.71.24,7.42.42,11.11.53,84.23,2.65,163.17-27.7,255.87-47.29,3.69-.78,7.39-1.55,11.12-2.28,66.13-13.16,139.49-20.1,226.73-5.51a189.089,189.089,0,0,1,26.76,6.4q5.77,1.86,11.12,4c41.64,16.94,64.35,48.24,74,87.46q1.37,5.46,2.37,11.11C1134.3,384.41,1084.19,518.23,1040.82,611.12Z" transform="translate(-79.34 -172.91)" fill="url(#backgroundGradient)"/>
      
      <!-- 设备屏幕 -->
      <path id="Path_300" data-name="Path 300" d="M576.36,618.52a95.21,95.21,0,0,1-1.87,11.12h93.7V618.52Zm-78.25,62.81,11.11-.09V653.77c-3.81-.17-7.52-.34-11.11-.52ZM265.19,618.52v11.12h198.5V618.52ZM1114.87,279h-74V191.51q-5.35-2.17-11.12-4V279H776.21V186.58c-3.73.73-7.43,1.5-11.12,2.28V279H509.22V236.15c-3.69-.11-7.4-.29-11.11-.53V279H242.24V217c-24.83,15.16-48.14,36.48-68.93,62h-.07v.08q-4.4,5.4-8.64,11h8.64V618.52h-83q1.66,5.63,3.6,11.12h79.39v93.62a87,87,0,0,0,12.2,2.79c1.21.19,2.43.35,3.65.49h0a87.991,87.991,0,0,0,10.79.54l42.33-.46v-97H498.11v94.21l11.11-.12V629.64H765.09V721l11.12-.12V629.64H1029.7v4.77c.76-1.58,1.54-3.16,2.32-4.77q2.63-5.45,5.33-11.12q1.73-3.64,3.47-7.4v-321h76.42Q1116.23,284.43,1114.87,279ZM242.24,618.52V290.08H498.11V618.52Zm267,0V290.08H765.09V618.52Zm520.48,0H776.21V290.08H1029.7Z" transform="translate(-79.34 -172.91)" opacity="0.1"/>
      
      <!-- 设备底座 -->
      <path id="Path_301" data-name="Path 301" d="M863.09,533.65v13l-151.92,1.4-1.62.03-57.74.53-1.38.02-17.55.15h-.52l-106.98.99L349.77,551.4h-.15l-44.65.42-.48.01-198.4,1.82v-15l46.65-28,93.6-.78,2-.01.66-.01,2-.03,44.94-.37,2.01-.01.64-.01,2-.01L315,509.3l.38-.01,35.55-.3h.29l277.4-2.34,6.79-.05h.68l5.18-.05,37.65-.31,2-.03,1.85-.02h.96l11.71-.09,2.32-.03,3.11-.02,9.75-.09,15.47-.13,2-.02,3.48-.02h.65l74.71-.64Z" fill="url(#deviceGradient)"/>
      <path id="Path_302" data-name="Path 302" d="M863.09,533.65v13l-151.92,1.4-1.62.03-57.74.53-1.38.02-17.55.15h-.52l-106.98.99L349.77,551.4h-.15l-44.65.42-.48.01-198.4,1.82v-15l46.65-28,93.6-.78,2-.01.66-.01,2-.03,44.94-.37,2.01-.01.64-.01,2-.01L315,509.3l.38-.01,35.55-.3h.29l277.4-2.34,6.79-.05h.68l5.18-.05,37.65-.31,2-.03,1.85-.02h.96l11.71-.09,2.32-.03,3.11-.02,9.75-.09,15.47-.13,2-.02,3.48-.02h.65l74.71-.64Z" opacity="0.2"/>
      
      <!-- React Logo 中心 -->
      <g transform="translate(500, 350)">
        <!-- React 原子核 -->
        <circle cx="0" cy="0" r="15" fill="#1976d2" />
        <circle cx="0" cy="0" r="10" fill="#42a5f5" />
        
        <!-- React 轨道椭圆 -->
        <ellipse cx="0" cy="0" rx="80" ry="30" fill="none" stroke="#1976d2" stroke-width="3" opacity="0.8" />
        <ellipse cx="0" cy="0" rx="80" ry="30" fill="none" stroke="#42a5f5" stroke-width="2" opacity="0.6" transform="rotate(60)" />
        <ellipse cx="0" cy="0" rx="80" ry="30" fill="none" stroke="#64b5f6" stroke-width="2" opacity="0.6" transform="rotate(-60)" />
        
        <!-- 电子点 -->
        <circle cx="80" cy="0" r="6" fill="#1976d2" />
        <circle cx="-40" cy="52" r="6" fill="#42a5f5" />
        <circle cx="-40" cy="-52" r="6" fill="#64b5f6" />
      </g>
      
      <!-- 代码窗口 -->
      <g transform="translate(200, 200)">
        <rect x="0" y="0" width="300" height="200" rx="10" fill="url(#deviceGradient)" stroke="#1976d2" stroke-width="2" />
        <rect x="5" y="5" width="290" height="30" rx="5" fill="#1565c0" />
        <circle cx="20" cy="20" r="5" fill="#f44336" />
        <circle cx="40" cy="20" r="5" fill="#ff9800" />
        <circle cx="60" cy="20" r="5" fill="#4caf50" />
        
        <!-- 代码内容 -->
        <text x="15" y="60" font-family="monospace" font-size="12" fill="#64b5f6">import React from 'react';</text>
        <text x="15" y="80" font-family="monospace" font-size="12" fill="#90caf9">import { Docusaurus } from 'dm-docs';</text>
        <text x="15" y="110" font-family="monospace" font-size="12" fill="#bbdefb">function App() {</text>
        <text x="30" y="130" font-family="monospace" font-size="12" fill="#bbdefb">return (</text>
        <text x="45" y="150" font-family="monospace" font-size="12" fill="#90caf9">&lt;Docusaurus theme="blue" /&gt;</text>
        <text x="30" y="170" font-family="monospace" font-size="12" fill="#bbdefb">);</text>
        <text x="15" y="190" font-family="monospace" font-size="12" fill="#bbdefb">}</text>
      </g>
      
      <!-- 移动设备 -->
      <g transform="translate(700, 250)">
        <rect x="0" y="0" width="120" height="200" rx="15" fill="url(#deviceGradient)" stroke="#1976d2" stroke-width="2" />
        <rect x="10" y="30" width="100" height="140" rx="5" fill="#0d47a1" />
        <circle cx="60" cy="15" r="3" fill="#42a5f5" />
        <circle cx="60" cy="185" r="8" fill="#1976d2" />
        
        <!-- 移动端内容 -->
        <rect x="20" y="40" width="80" height="8" rx="2" fill="#64b5f6" />
        <rect x="20" y="55" width="60" height="6" rx="2" fill="#90caf9" />
        <rect x="20" y="68" width="70" height="6" rx="2" fill="#90caf9" />
        
        <!-- 移动端按钮 -->
        <rect x="30" y="90" width="60" height="25" rx="5" fill="#1976d2" />
        <text x="60" y="105" font-family="Arial, sans-serif" font-size="10" fill="white" text-anchor="middle">开始</text>
        
        <!-- 移动端图标 -->
        <circle cx="35" cy="135" r="8" fill="#42a5f5" />
        <circle cx="60" cy="135" r="8" fill="#64b5f6" />
        <circle cx="85" cy="135" r="8" fill="#90caf9" />
      </g>
      
      <!-- 装饰性元素 -->
      <circle cx="100" cy="100" r="20" fill="#42a5f5" opacity="0.3" />
      <circle cx="900" cy="150" r="25" fill="#64b5f6" opacity="0.4" />
      <circle cx="150" cy="450" r="15" fill="#1976d2" opacity="0.5" />
      <circle cx="850" cy="400" r="18" fill="#90caf9" opacity="0.4" />
      
      <!-- 连接线 -->
      <path d="M300,300 Q400,250 500,300" stroke="#42a5f5" stroke-width="2" fill="none" opacity="0.6" />
      <path d="M600,350 Q650,300 700,350" stroke="#64b5f6" stroke-width="2" fill="none" opacity="0.6" />
      
      <!-- 支架 -->
      <path id="Path_303" data-name="Path 303" d="M375.44,656.57v24.49a6.13,6.13,0,0,1-3.5,5.54,6,6,0,0,1-2.5.6l-34.9.74a6,6,0,0,1-2.7-.57,6.12,6.12,0,0,1-3.57-5.57V656.57Z" transform="translate(-79.34 -172.91)" fill="url(#deviceGradient)"/>
      <path id="Path_304" data-name="Path 304" d="M375.44,656.57v24.49a6.13,6.13,0,0,1-3.5,5.54,6,6,0,0,1-2.5.6l-34.9.74a6,6,0,0,1-2.7-.57,6.12,6.12,0,0,1-3.57-5.57V656.57Z" transform="translate(-79.34 -172.91)" opacity="0.1"/>
    </g>
  </g>
</svg>
